Point(1) = {0, 0, 0};
Point(2) = {1, 0, 0};
Point(3) = {1, 1, 0};
Point(4) = {0, 1, 0};
Point(5) = {0, 0, 1};
Point(6) = {1, 0, 1};
Point(7) = {1, 1, 1};
Point(8) = {0, 1, 1};

Line(1) = {1, 2};
Line(2) = {2, 3};
Line(3) = {3, 4};
Line(4) = {4, 1};
Line(5) = {5, 6};
Line(6) = {6, 7};
Line(7) = {7, 8};
Line(8) = {8, 5};
Line(9) = {1, 5};
Line(10) = {2, 6};
Line(11) = {3, 7};
Line(12) = {4, 8};

Curve Loop(1) = {1, 2, 3, 4};
Curve Loop(2) = {5, 6, 7, 8};
Curve Loop(3) = {1, 10, -5, -9};
Curve Loop(4) = {2, 11, -6, -10};
Curve Loop(5) = {3, 12, -7, -11};
Curve Loop(6) = {4, 9, -8, -12};

Plane Surface(1) = {1};
Plane Surface(2) = {2};
Plane Surface(3) = {3};
Plane Surface(4) = {4};
Plane Surface(5) = {5};
Plane Surface(6) = {6};

Surface Loop(1) = {1, 2, 3, 4, 5, 6};
Volume(1) = {1};

Physical Surface("bottom") = {1};
Physical Surface("top") = {2};
Physical Surface("left") = {3};
Physical Surface("front") = {4};
Physical Surface("right") = {5};
Physical Surface("back") = {6};
Physical Volume("domain") = {1};

Periodic Surface {2} = {1} Translate {0, 0, 1};

// MeshSize {:} = 0.1;
Mesh.CharacteristicLengthMin = 0.2;
Mesh.CharacteristicLengthMax = 0.2;

Mesh 3;